const int songNum = 5;

const PROGMEM uint16_t melody[songNum][256] =
{
  // パーパパパーパーパーパー
  {
     NOTE_C4, NOTE_G3, NOTE_G3, NOTE_A3, NOTE_G3, NOTE_B3, NOTE_C4,
     0
  },
  // キラキラ星
  {
    NOTE_C4, NOTE_C4, NOTE_G4, NOTE_G4, NOTE_A4, NOTE_A4, NOTE_G4,
    NOTE_F4, NOTE_F4, NOTE_E4, NOTE_E4, NOTE_D4, NOTE_D4, NOTE_C4,
    NOTE_G4, NOTE_G4, NOTE_F4, NOTE_F4, NOTE_E4, NOTE_E4, NOTE_D4,
    NOTE_G4, NOTE_G4, NOTE_F4, NOTE_F4, NOTE_E4, NOTE_E4, NOTE_D4,
    NOTE_C4, NOTE_C4, NOTE_G4, NOTE_G4, NOTE_A4, NOTE_A4, NOTE_G4,
    NOTE_F4, NOTE_F4, NOTE_E4, NOTE_E4, NOTE_D4, NOTE_D4, NOTE_C4,
    0
  },
  // ナウシカレクイエム
  {
    NOTE_A4, NOTE_C5, NOTE_B4, NOTE_A4, NOTE_B4, NOTE_E4, NOTE_E4,
    NOTE_A4, NOTE_C5, NOTE_B4, NOTE_A4, NOTE_GS4,
    NOTE_E4, NOTE_A4, NOTE_C5, NOTE_B4, NOTE_A4, NOTE_B4, NOTE_E4, NOTE_E4, NOTE_E4,
    NOTE_F4, NOTE_G4, NOTE_A4, NOTE_B4, NOTE_C5, NOTE_B4, NOTE_A4,
    NOTE_A4, NOTE_C5, NOTE_B4, NOTE_A4, NOTE_B4, NOTE_E4, NOTE_E4,
    NOTE_A4, NOTE_C5, NOTE_B4, NOTE_A4, NOTE_G4,
    NOTE_E4, NOTE_A4, NOTE_C5, NOTE_B4, NOTE_A4, NOTE_B4, NOTE_E4, NOTE_E4,
    NOTE_F4, NOTE_G4, NOTE_A4, NOTE_B4, NOTE_C5, NOTE_A4, NOTE_B4,
    NOTE_A4, NOTE_C5, NOTE_B4, NOTE_A4, NOTE_B4, NOTE_E4, NOTE_E4,
    NOTE_A4, NOTE_C5, NOTE_B4, NOTE_A4, NOTE_G4,
    NOTE_E4, NOTE_A4, NOTE_C5, NOTE_B4, NOTE_A4, NOTE_B4, NOTE_E4, NOTE_E4, NOTE_E4,
    NOTE_F4, NOTE_G4, NOTE_A4, NOTE_B4, NOTE_C5, NOTE_B4, NOTE_A4,
    NOTE_E4, NOTE_E4, NOTE_E4, NOTE_E4, NOTE_F4, NOTE_E4, NOTE_E4, NOTE_D4, NOTE_D4,
    NOTE_D4, NOTE_D4, NOTE_D4, NOTE_D4, NOTE_E4, NOTE_D4, NOTE_D4, NOTE_C5, NOTE_C5,
    NOTE_C5, NOTE_C5, NOTE_C5, NOTE_C5, NOTE_D4, NOTE_A4, NOTE_D4,
    NOTE_C5, NOTE_B4, NOTE_A4, NOTE_G4, NOTE_E4, NOTE_B4,
    NOTE_A4, NOTE_C5, NOTE_B4, NOTE_A4, NOTE_B4, NOTE_E4, NOTE_E4,
    NOTE_A4, NOTE_C5, NOTE_B4, NOTE_A4, NOTE_G4,
    NOTE_E4, NOTE_A4, NOTE_C5, NOTE_B4, NOTE_A4, NOTE_B4, NOTE_E4, NOTE_E4, NOTE_E4,
    NOTE_F4, NOTE_G4, NOTE_A4, NOTE_B4, NOTE_C5, NOTE_B4, NOTE_A4,
    0
  },
  // ようこそなんとかパークへ
  {
    NOTE_F4, NOTE_E4, NOTE_F4, NOTE_G4, NOTE_F4, NOTE_G4, NOTE_A4,
    NOTE_AS4, NOTE_B4, NOTE_C5, NOTE_A4, NOTE_G4, NOTE_F4,
    NOTE_F4, NOTE_D5, NOTE_C5, NOTE_F4, NOTE_AS4, NOTE_A4,
    NOTE_G4, NOTE_F4, NOTE_G4,
    0
  },
  // 君が代
  {
    NOTE_D4,NOTE_C4,NOTE_D4,NOTE_E4,NOTE_G4,NOTE_E4,NOTE_D4,NOTE_E4,
    NOTE_G4,NOTE_A4,NOTE_G4,NOTE_A4,NOTE_D5,NOTE_B4,NOTE_A4,NOTE_G4,
    NOTE_E4,NOTE_G4,NOTE_A4,NOTE_D5,NOTE_C5,NOTE_D5,NOTE_E4,NOTE_G4,
    NOTE_A4,NOTE_G4,NOTE_E4,NOTE_G4,NOTE_D4,NOTE_A4,NOTE_C5,NOTE_D5,
    NOTE_C5,NOTE_D5,NOTE_A4,NOTE_G4,NOTE_A4,NOTE_G4,NOTE_E4,NOTE_D4,
    0
  }
};
